<?xml version="1.0" standalone="no"?>
<!DOCTYPE svg PUBLIC "-//W3C//DTD SVG 20010904//EN"
 "http://www.w3.org/TR/2001/REC-SVG-20010904/DTD/svg10.dtd">
<svg version="1.0" xmlns="http://www.w3.org/2000/svg"
 width="700.000000pt" height="700.000000pt" viewBox="0 0 700.000000 700.000000"
 preserveAspectRatio="xMidYMid meet">
<metadata>
Created by potrace 1.11, written by Peter Selinger 2001-2013
</metadata>
<g transform="translate(0.000000,700.000000) scale(0.100000,-0.100000)"
fill="#000000" stroke="none">
<path d="M0 3500 l0 -3500 3500 0 3500 0 0 3500 0 3500 -3500 0 -3500 0 0
-3500z m5139 3255 c100 -51 235 -293 267 -479 8 -43 12 -81 10 -83 -2 -2 -124
53 -270 124 -194 93 -266 132 -266 144 0 29 59 186 88 236 16 27 39 54 53 60
32 17 84 16 118 -2z m-3240 -30 c37 -19 83 -92 130 -207 l38 -93 -36 -21 c-20
-11 -139 -73 -265 -138 l-229 -119 7 75 c13 141 79 321 155 422 67 88 134 116
200 81z m3217 -448 c261 -105 351 -137 894 -324 432 -148 846 -298 877 -319
33 -21 47 -84 33 -147 -6 -28 -56 -157 -111 -287 -148 -347 -223 -471 -383
-638 -145 -151 -307 -262 -381 -262 -48 0 -86 37 -140 137 -359 663 -700 938
-1537 1236 -22 8 -23 29 -4 65 7 15 33 81 56 147 73 206 150 346 234 428 98
95 144 91 462 -36z m-2876 58 c39 -20 127 -113 176 -186 24 -37 68 -118 98
-181 139 -296 137 -291 124 -303 -7 -7 -84 -40 -172 -75 -213 -85 -403 -182
-561 -287 -177 -119 -368 -308 -476 -473 -93 -141 -159 -258 -239 -424 -54
-114 -65 -129 -96 -142 -32 -13 -42 -13 -89 1 -105 30 -332 204 -455 348 -34
40 -93 118 -131 175 -88 131 -325 602 -334 665 -9 56 3 95 36 119 29 22 446
186 858 338 409 151 669 253 892 350 231 100 293 113 369 75z m2447 -850 c124
-44 185 -72 283 -131 69 -42 129 -80 134 -84 9 -9 -332 -665 -564 -1085 -121
-219 -387 -677 -461 -793 -16 -25 -27 -52 -25 -59 12 -29 467 -627 677 -888
331 -412 558 -660 933 -1021 318 -306 614 -617 644 -677 45 -90 18 -175 -94
-296 -135 -145 -335 -198 -458 -121 -17 10 -94 83 -171 161 -77 78 -261 257
-410 399 -516 492 -1024 1064 -1512 1702 l-52 68 -177 -253 c-471 -667 -811
-1080 -1374 -1668 -107 -112 -241 -256 -297 -320 -136 -156 -195 -184 -328
-160 -100 18 -180 64 -272 156 -148 147 -160 233 -54 365 112 139 354 414 490
554 360 374 577 633 874 1045 242 334 641 927 641 951 0 8 -87 143 -194 300
-106 157 -272 411 -370 565 -244 387 -622 1013 -624 1033 -1 10 45 45 124 97
98 63 159 93 279 139 129 49 155 56 166 45 7 -8 215 -304 462 -659 458 -657
594 -849 603 -850 8 0 172 260 550 875 391 637 408 665 414 665 3 0 76 -25
163 -55z"/>
</g>
</svg>
