<?xml version="1.0" encoding="utf-8"?>
<!-- Generator: Adobe Illustrator 18.1.1, SVG Export Plug-In . SVG Version: 6.00 Build 0)  -->
<svg version="1.1" id="Layer_1" xmlns="http://www.w3.org/2000/svg" xmlns:xlink="http://www.w3.org/1999/xlink" x="0px" y="0px"
	 viewBox="0 0 222.5 211.5" enable-background="new 0 0 222.5 211.5" xml:space="preserve">
<rect x="-545.2" y="-301.5" display="none" width="1528" height="1245"/>
<rect x="-301.7" y="221" display="none" fill="#FFFFFF" stroke="#FFFFFF" stroke-width="5" stroke-miterlimit="10" width="1112" height="220"/>
<g id="front">
	<g>
		<g>
			<g>
				<g>
					<polygon fill="#FFFFFF" points="67.5,17.5 67.5,17.6 67.5,17.5 					"/>
				</g>
				<g>
					<path fill="#FFFFFF" d="M83.4,35.2c-2.3-4.1-3.6-8.7-6.1-12.8c-1.6-2.7-3.9-6.1-6.6-8c-2.3-1.6-5.1-1-7.5-0.1
						c-4,1.5-7.9,3.6-11.9,5.2c-9.4,3.8-19,7.2-28.6,10.7c-4.8,1.8-9.5,3.6-14.2,5.5c-1.9,0.8-3.7,1.4-5.6,2.2
						c-0.8,0.3-1.9,0.8-2.4,1.6c-1.8,3.2,1.6,8.1,3,10.9c2.6,5.5,5.3,11,8.9,16c3.4,4.7,7.6,8.8,12.5,12.1c2,1.4,6.8,4.7,9,2.1
						c1.2-1.5,1.8-3.4,2.6-5.1c1.3-2.7,2.7-5.4,4.2-8c3.1-5.3,6.6-10.2,11.1-14.4c9-8.1,19.8-12.9,31.1-17.2c0.1,0,0.2-0.1,0.2-0.2
						C83.5,35.7,83.5,35.5,83.4,35.2z"/>
				</g>
				<g>
					<polygon fill="#FFFFFF" points="36.8,73.9 36.8,73.9 36.8,73.9 					"/>
				</g>
				<g>
					<polygon fill="#FFFFFF" points="69.5,20.3 69.5,20.3 69.5,20.3 					"/>
				</g>
			</g>
			<g>
				<g>
					<path fill="#FFFFFF" d="M196.2,188.2c-5.6-6.2-11.6-12-17.5-17.4c-8.8-8.1-17.1-17.8-25-27.3c-12.8-15.4-45.4-60.1-45.4-60.1
						c-1.8-2.5-3.6-5.1-5.4-7.6c-3.8-5.5-19.8-28.4-23.8-34c-0.3-0.5-0.7-1-1-1.5c-0.8,0.3-9.3,3.5-10.4,4c-0.4,0.2-6.3,4-8.2,5.4
						c5.4,8.7,10.5,17.5,15.9,26.2c6.6,10.7,13.4,21.2,20.7,31.7c13.1,18.9,27.3,37.7,42.6,55.2c7.5,8.6,15.3,16.9,23.4,24.6
						c6.3,6,15.1,14.1,19.8,19.4c5.7,6.4,13.8,1.7,16.5-1.1C207.3,197.1,201.8,194.5,196.2,188.2z"/>
				</g>
				<g>
					<path fill="#FFFFFF" d="M191.7,202.7c-0.6,0.3-1,0.8-1.1,1.2c0,0.2,0.1,0.5,0.4,0.7c1.1,0.8,3.3-0.2,4.8-1.4
						c1.3-1.1,2-1.9,2.1-2.7c0.2-1.1-1.1-1.8-2.8-1.7c-0.8,0-1.7,0.2-2.6,0.5c-0.3,0.6-0.5,1.1-0.7,1.7c-0.1,0.3-0.3,0.7-0.4,1
						c1-0.5,2.2-0.6,3.1-0.4c0.1,0,0.3,0.4,0.2,0.5c-0.1,0.2-0.2,0.4-0.3,0.6l-0.2,0.3c-0.1,0.2-0.3,0.2-0.5,0.2
						c-0.3,0-0.5-0.1-0.7-0.2l-0.1-0.3l-0.1,0.2c-0.1-0.1-0.3-0.3-0.2-0.5c0,0,0,0,0,0C192.2,202.5,191.9,202.6,191.7,202.7z
						 M194.6,201.9c0-0.1,0-0.2,0-0.2c0.2-0.3,0.2-0.7,0.3-1.1c0-0.1,0.1-0.2,0.2-0.3c0.1,0,0.3-0.1,0.3,0c0.1,0,0.2,0.2,0.2,0.3
						c0,0,0,0,0,0c0-0.1,0-0.1,0.1-0.2c0.1-0.1,0.3-0.2,0.5-0.2c0.1,0,0.1,0.1,0.2,0.2c0,0.1,0,0.2,0,0.2c-0.1,0.3-0.2,0.6-0.3,0.9
						c-0.1,0.2-0.1,0.4-0.2,0.6c0,0.1-0.1,0.2-0.2,0.2c-0.1,0-0.2,0-0.3,0c-0.1,0-0.2-0.2-0.2-0.4c-0.1,0.1-0.3,0.2-0.4,0.1
						C194.8,202,194.7,201.9,194.6,201.9z"/>
				</g>
			</g>
		</g>
		<g>
			<g>
				<path fill="#FFFFFF" d="M64.5,11.3c-1.5-4.1-3.5-9.1-5.7-10.1C58.5,1,57.8,0.9,56.4,1c-4.2,0.1-9.7,13.1-8.9,19.1
					C47.8,20,63.7,11.7,64.5,11.3z"/>
			</g>
		</g>
	</g>
	<g>
		<g>
			<g>
				<g>
					<polygon fill="#FFFFFF" points="153.2,16.7 153.2,16.7 153.2,16.7 					"/>
				</g>
				<g>
					<path fill="#FFFFFF" d="M138.8,35.3c0.1,0.1,0.1,0.1,0.2,0.2c11.6,4.1,22.8,8.7,32.4,16.6c4.9,4,8.7,9,12.2,14.2
						c1.7,2.6,3.3,5.2,4.8,7.9c1,1.7,1.7,3.6,3,5.1c2.4,2.6,6.9-0.8,8.9-2.3c4.7-3.4,8.5-7.6,11.6-12.4c3.2-5,5.5-10.6,7.7-16.1
						c1.2-2.9,4.2-7.8,2.1-11c-0.5-0.8-1.6-1.2-2.5-1.5c-1.9-0.7-3.8-1.4-5.7-2.1c-4.8-1.8-9.7-3.6-14.6-5.2
						c-9.8-3.4-19.7-6.5-29.4-10.2c-4.1-1.6-8.1-3.5-12.3-5c-2.5-0.9-5.3-1.5-7.5,0.2c-2.6,1.9-4.6,5.3-6,8.1
						c-2.1,4.1-3.1,8.7-5.1,12.9C138.5,35,138.6,35.2,138.8,35.3z"/>
				</g>
				<g>
					<polygon fill="#FFFFFF" points="188.1,72.5 188.1,72.5 188.1,72.5 					"/>
				</g>
				<g>
					<polygon fill="#FFFFFF" points="151.4,19.5 151.4,19.6 151.4,19.5 					"/>
				</g>
			</g>
			<g>
				<g>
					<path fill="#FFFFFF" d="M36.2,207.4c3,2.7,11.4,7.2,16.6,0.8c4.3-5.4,12.5-13.6,18.4-19.7c7.5-7.8,14.6-16.3,21.5-25
						c14.1-17.8,26.9-36.8,38.5-56c6.5-10.6,12.6-21.3,18.3-32.1c4.7-8.8,9.2-17.7,14-26.5c-1.9-1.3-8.1-5-8.6-5.2
						c-1.2-0.5-9.9-3.5-10.7-3.8c-0.3,0.5-0.6,1-0.9,1.5c-3.5,5.7-17.8,28.9-21.2,34.5c-1.6,2.6-3.2,5.1-4.8,7.7
						c0,0-29.3,45.3-40.9,60.9c-7.2,9.6-14.7,19.4-23,27.7c-5.5,5.5-11.1,11.4-16.2,17.7C32.1,196.1,26.8,198.8,36.2,207.4z"/>
				</g>
				<g>
					<path fill="#FFFFFF" d="M41.9,203.8C41.9,203.8,41.9,203.8,41.9,203.8c0.1,0.1-0.1,0.4-0.2,0.5l-0.1-0.2l-0.1,0.3
						c-0.2,0.1-0.4,0.2-0.7,0.2c-0.2,0-0.4,0-0.5-0.2l-0.2-0.2c-0.1-0.2-0.3-0.3-0.4-0.6c0-0.1,0.1-0.5,0.2-0.5
						c0.9-0.3,2.1-0.1,3.1,0.3c-0.2-0.3-0.3-0.7-0.5-1c-0.2-0.5-0.5-1.1-0.8-1.7c-0.9-0.2-1.8-0.4-2.7-0.4c-1.8-0.1-3,0.6-2.7,1.8
						c0.2,0.7,1,1.6,2.3,2.6c1.6,1.2,3.9,2.1,4.9,1.3c0.2-0.2,0.4-0.4,0.3-0.7c-0.1-0.4-0.5-0.8-1.1-1.2
						C42.6,204,42.3,203.9,41.9,203.8z M39.7,203.5c-0.1,0-0.3,0-0.4-0.1c0,0.1,0,0.3-0.2,0.4c-0.1,0-0.2,0-0.3,0
						c-0.1,0-0.2-0.1-0.2-0.2c-0.1-0.2-0.1-0.4-0.2-0.6c-0.1-0.3-0.2-0.6-0.4-0.9c0-0.1,0-0.2,0-0.2c0-0.1,0.1-0.1,0.2-0.2
						c0.1,0,0.4,0.1,0.5,0.2c0,0.1,0,0.1,0.1,0.2c0,0,0,0,0,0c0-0.1,0.1-0.3,0.2-0.3c0.1,0,0.3,0,0.3,0c0.1,0,0.2,0.2,0.2,0.3
						c0.1,0.4,0.2,0.7,0.4,1.1c0,0.1,0,0.2,0,0.2C39.8,203.4,39.7,203.5,39.7,203.5z"/>
				</g>
			</g>
		</g>
		<g>
			<g>
				<path fill="#FFFFFF" d="M173.4,18.9c0.3-6-6.1-18.9-10.3-18.9c-1.4-0.1-2.1,0-2.4,0.2c-2.1,1-3.8,6.1-4.9,10.2
					C156.6,10.8,173.1,18.8,173.4,18.9z"/>
			</g>
		</g>
	</g>
</g>
</svg>
