<?xml version="1.0" encoding="utf-8"?>
<!-- Generator: Adobe Illustrator 16.2.1, SVG Export Plug-In . SVG Version: 6.00 Build 0)  -->
<!DOCTYPE svg PUBLIC "-//W3C//DTD SVG 1.1//EN" "http://www.w3.org/Graphics/SVG/1.1/DTD/svg11.dtd">
<svg version="1.1" id="Layer_1" xmlns="http://www.w3.org/2000/svg" xmlns:xlink="http://www.w3.org/1999/xlink" x="0px" y="0px"
	 width="503.616px" height="122.567px" viewBox="0 0 503.616 122.567" enable-background="new 0 0 503.616 122.567"
	 xml:space="preserve">
<g>
	<g>
		<path fill="#FFFFFF" d="M18.895,71.846c-0.968,2.87-2.102,5.628-3.129,8.164c-0.268,0.662-0.553,1.332-0.881,1.938
			c-0.33,0.608-0.649,1.261-0.982,1.865c-0.175,0.319-0.394,0.662-0.61,1.017c-0.216,0.356-0.352,0.702-0.435,0.99
			c-0.069,0.24-0.093,0.574-0.032,0.975c0.061,0.402,0.109,0.717,0.144,0.946c0.131,0.861,0.408,2.184,0.828,3.969
			c0.42,1.784,0.96,3.567,1.617,5.345c0.657,1.779,1.451,3.303,2.384,4.57c0.933,1.269,1.978,1.815,3.138,1.643
			c1.333-0.198,2.635-0.903,3.911-2.117c1.275-1.211,2.469-2.601,3.581-4.167c1.112-1.567,2.098-3.188,2.964-4.864
			c0.864-1.674,1.574-3.084,2.049-4.198c0.181-0.424,0.439-0.909,0.786-1.427c0.345-0.516,0.754-0.808,1.223-0.873
			c0.352-0.048,0.662,0.041,0.932,0.268c0.269,0.227,0.428,0.512,0.476,0.857c0.087,0.633,0.024,1.258-0.189,1.872
			c-0.214,0.615-0.462,1.236-0.728,1.856c-0.634,1.48-1.487,3.237-2.572,5.235c-1.086,1.998-2.327,3.918-3.721,5.758
			c-1.396,1.841-2.908,3.451-4.537,4.833c-1.63,1.382-3.308,2.202-5.041,2.462c-1.503,0.225-2.885-0.035-4.151-0.78
			c-1.267-0.746-2.404-1.79-3.412-3.132c-1.007-1.342-1.916-2.89-2.725-4.645c-0.808-1.753-1.501-3.525-2.08-5.314
			c-0.578-1.788-1.054-3.492-1.427-5.107s-0.646-2.967-0.817-4.057c-0.44-2.809-0.781-5.649-1.018-8.52
			c-0.238-2.87-0.083-8.552-0.113-8.573c-0.073-0.05-1.175,0.448-1.827,0.551c-1.422,0.223-2.241-0.352-2.458-1.728
			c-0.182-1.146,0.219-1.974,1.205-2.482c0.984-0.507,2.626-0.785,2.892-1.069c0.48-0.516,0.597-3.806,1.089-6.555
			c0.493-2.748,1.203-5.5,2.135-8.254c0.931-2.753,2.119-5.177,3.562-7.271c1.442-2.092,3.223-3.295,5.337-3.603
			c0.965-0.141,1.765,0.039,2.39,0.534c0.625,0.496,1.131,1.127,1.518,1.892c0.386,0.767,0.674,1.591,0.861,2.471
			c0.188,0.882,0.327,1.639,0.417,2.271c0.32,2.24,0.48,4.536,0.48,6.879c0,2.345-0.602,6.853-0.512,6.933
			c0.126,0.114,1.989-0.551,2.979-0.868c0.988-0.316,1.99-0.545,3.004-0.688c0.834-0.117,1.305,0.2,1.409,0.946
			c0.064,0.461,0.005,0.805-0.174,1.035c-0.181,0.231-0.437,0.52-0.758,0.764c-0.201,0.153-0.647,0.369-1.273,0.663
			c-0.626,0.294-1.312,0.597-2.056,0.908c-0.745,0.312-1.462,0.605-2.151,0.881c-0.689,0.275-1.453,0.454-1.554,0.575
			C20.036,64.392,19.862,68.977,18.895,71.846z M10.645,73.961c0.207,2.345,0.57,7,0.57,7c0.045,0.01,1.088-2.042,1.693-3.426
			c0.604-1.382,1.169-2.832,1.698-4.35c0.528-1.516,0.989-2.993,1.381-4.431c0.392-1.437,0.815-3.762,0.804-3.771
			c-0.123-0.098-2.08,0.704-3.135,0.951c-1.055,0.246-2.741,0.617-3.032,1.029C9.962,67.904,10.438,71.615,10.645,73.961z
			 M13.99,45.378c-0.79,1.731-1.448,3.706-1.973,5.925c-0.526,2.221-0.919,4.379-1.183,6.473c-0.265,2.095-0.454,4.402-0.377,4.458
			c0.197,0.145,2.365-0.665,3.603-0.937s3.191-0.622,3.578-1.101c0.748-0.926,0.635-4.815,0.721-7.584
			c0.086-2.768-0.036-5.301-0.369-7.599c-0.017-0.115-0.046-0.314-0.088-0.603c-0.042-0.287-0.114-0.57-0.215-0.848
			c-0.101-0.277-0.231-0.524-0.385-0.736c-0.153-0.211-0.351-0.302-0.591-0.267C15.685,42.708,14.778,43.649,13.99,45.378z"/>
		<path fill="#FFFFFF" d="M41.089,93.902c0.146,0.858,0.379,1.705,0.699,2.54c0.32,0.834,0.728,1.543,1.218,2.12
			c0.491,0.578,1.114,0.818,1.87,0.717c1.161-0.154,2.354-0.853,3.582-2.097c1.227-1.243,2.402-2.684,3.526-4.319
			c1.125-1.636,2.131-3.298,3.018-4.988c0.887-1.69,1.552-3.077,2.04-4.026c0.222-0.432,0.523-0.943,0.842-1.509
			c0.317-0.565,0.77-0.884,1.358-0.956c0.586-0.072,0.949,0.089,1.085,0.48c0.137,0.393,0.235,0.819,0.291,1.279
			c0.035,0.289-0.012,0.646-0.139,1.069c-0.127,0.425-0.294,0.87-0.504,1.334c-0.211,0.465-0.426,0.9-0.644,1.306
			c-0.217,0.408-0.406,0.74-0.546,0.989c-0.687,1.221-1.561,2.751-2.645,4.496c-1.085,1.745-2.306,3.435-3.662,5.07
			c-1.357,1.637-2.781,3.066-4.272,4.285c-1.493,1.219-3.017,1.934-4.581,2.144c-1.737,0.233-3.186-0.111-4.345-1.036
			c-1.161-0.924-2.136-2.109-2.928-3.552c-0.791-1.441-1.396-3-1.807-4.672c-0.411-1.671-0.705-3.138-0.881-4.403
			c-0.224-1.608-0.284-3.433-0.178-5.468s0.275-3.855,0.555-5.395c0.292-1.61,0.856-3.031,1.626-4.221
			c0.768-1.188,2.098-1.912,3.989-2.166c1.358-0.182,2.122,0.362,2.29,1.626c0.077,0.576,0.062,1.265-0.041,2.069
			c-0.104,0.804-0.246,1.644-0.428,2.516c-0.184,0.874-0.365,1.748-0.547,2.62c-0.183,0.875-0.34,1.657-0.409,2.296
			c-0.265,2.459-0.112,5.138,0.245,7.783C40.836,92.354,40.943,93.045,41.089,93.902z M42.438,60.132
			c0.652,0.586,1.035,1.313,1.147,2.176c0.15,1.152-0.129,2.255-0.834,3.313c-0.707,1.059-1.651,1.667-2.836,1.825
			c-0.949,0.126-1.732-0.104-2.355-0.694c-0.623-0.588-0.993-1.315-1.11-2.178c-0.148-1.092,0.112-2.183,0.784-3.27
			c0.672-1.086,1.603-1.707,2.795-1.865C40.981,59.313,41.787,59.545,42.438,60.132z"/>
		<path fill="#FFFFFF" d="M81.287,95.213c-0.526-1.05-1.002-2.415-1.423-4.091c-0.42-1.675-0.801-3.518-1.142-5.523
			c-0.34-2.005-0.616-3.96-0.827-5.864c-0.21-1.903-0.396-3.576-0.556-5.019c-0.166-1.499-0.28-2.537-0.344-3.114
			c-0.032-0.288-0.103-0.66-0.213-1.115c-0.109-0.453-0.404-0.656-0.877-0.604c-0.592,0.066-1.345,0.691-2.258,1.874
			c-0.914,1.185-1.881,2.681-2.896,4.491c-1.016,1.812-2.036,3.799-3.062,5.964c-1.026,2.166-1.979,4.267-2.862,6.3
			c-0.883,2.034-1.641,3.852-2.274,5.448c-0.635,1.598-1.044,2.774-1.259,3.485c-0.2,0.663-0.533,1.309-0.959,1.916
			c-0.427,0.607-1.045,0.961-1.857,1.062c-0.581,0.072-1.04-0.061-1.376-0.398c-0.338-0.337-0.539-0.766-0.604-1.284
			c-0.108-0.864-0.147-2.231-0.116-4.108c0.031-1.875,0.091-4.005,0.18-6.384c0.089-2.379,0.241-4.868,0.456-7.468
			c0.215-2.6,0.448-5.069,0.699-7.41c0.252-2.34,0.541-4.408,0.863-6.201c0.323-1.793,0.612-3.076,0.894-3.791
			c0.479-1.216,1.42-2.217,2.721-2.957c1.3-0.738,2.575-1.182,3.825-1.328c0.655-0.076,1.156,0.057,1.497,0.397
			s0.546,0.828,0.62,1.461c0.066,0.577,0.026,1.283-0.117,2.117c-0.145,0.835-0.344,1.691-0.603,2.566
			c-0.259,0.877-0.519,1.742-0.78,2.59c-0.261,0.85-0.475,1.579-0.645,2.179c-0.461,1.628-0.808,3.31-1.022,5.029
			c-0.214,1.721-0.465,5.141-0.465,5.141c0.026,0.007,1.264-2.399,2.188-4.203c0.922-1.803,1.957-3.589,3.101-5.356
			c1.144-1.767,2.362-3.322,3.652-4.665c1.29-1.341,2.528-2.079,3.716-2.21c0.831-0.091,1.511,0.098,2.042,0.565
			c0.531,0.467,0.972,1.064,1.319,1.784c0.348,0.722,0.609,1.479,0.785,2.277c0.176,0.799,0.294,1.489,0.356,2.064
			c0.18,1.674,0.331,3.351,0.453,5.029c0.122,1.68,0.272,3.356,0.453,5.029c0.093,0.866,0.193,1.789,0.299,2.77
			c0.1,0.923,0.455,1.885,0.64,2.645c0.012,0.049,0.048,0.171,0.125,0.338c0.077,0.166,0.174,0.243,0.292,0.23
			c0.175-0.019,0.372-0.258,0.589-0.719c0.217-0.461,0.381-0.786,0.474-0.97c0.893-1.773,1.821-3.651,2.854-5.422
			c1.032-1.77,2.048-3.567,3.061-5.348c0.598-1.051,1.315-2.292,2.128-3.716c0.811-1.423,1.704-2.794,2.681-4.115
			c0.976-1.321,2.061-2.478,3.255-3.467c1.192-0.99,2.474-1.549,3.841-1.678c0.95-0.089,1.805,0.064,2.56,0.46
			c0.755,0.397,1.388,0.923,1.896,1.576c0.509,0.653,0.906,1.391,1.189,2.208c0.284,0.819,0.46,1.634,0.534,2.442
			c0.303,3.353,0.398,6.71,0.289,10.07c-0.109,3.361-0.01,6.717,0.295,10.068c0.037,0.405,0.095,0.881,0.175,1.426
			c0.08,0.546,0.214,1.045,0.401,1.493c0.188,0.449,0.458,0.833,0.81,1.151c0.351,0.318,0.816,0.451,1.399,0.399
			c0.99-0.089,2.079-0.581,3.265-1.471c1.185-0.89,2.345-1.936,3.479-3.139c1.133-1.202,2.176-2.441,3.132-3.714
			c0.955-1.272,1.721-2.313,2.224-3.108c0.263-0.416,0.602-0.937,1.027-1.525c0.425-0.587,0.933-0.903,1.521-0.95
			c0.529-0.042,0.885,0.133,1.062,0.525c0.178,0.393,0.284,0.794,0.315,1.198c0.023,0.291-0.056,0.602-0.235,0.935
			c-0.181,0.335-0.35,0.625-0.507,0.87c-0.788,1.227-1.836,2.679-3.141,4.357c-1.306,1.679-2.76,3.301-4.359,4.863
			c-1.6,1.563-3.241,2.912-4.928,4.051c-1.688,1.139-3.283,1.777-4.793,1.915c-1.453,0.133-2.607-0.168-3.467-0.903
			c-0.86-0.737-1.553-1.691-2.075-2.865c-0.522-1.174-0.89-2.421-1.104-3.743c-0.214-1.32-0.371-2.5-0.47-3.54
			c-0.247-2.6-0.361-5.212-0.343-7.837c0.018-2.625-0.099-5.266-0.35-7.924c-0.022-0.23-0.066-0.548-0.134-0.949
			c-0.068-0.4-0.165-0.786-0.289-1.153c-0.124-0.367-0.305-0.687-0.54-0.955c-0.234-0.269-0.529-0.388-0.884-0.354
			c-0.71,0.068-1.548,0.689-2.508,1.86c-0.961,1.173-1.965,2.657-3.006,4.451c-1.043,1.795-2.092,3.782-3.146,5.959
			c-1.056,2.179-2.04,4.279-2.953,6.298c-0.914,2.02-1.713,3.843-2.396,5.461c-0.684,1.619-1.236,2.803-1.611,3.541
			c-0.246,0.483-0.522,0.903-0.84,1.229c-0.318,0.327-0.768,0.521-1.348,0.583C82.368,96.758,81.814,96.263,81.287,95.213z"/>
		<path fill="#FFFFFF" d="M153.269,69.705c0.211,3.36-0.306,6.706-1.536,10.041c-1.231,3.337-3.021,6.273-5.283,8.812
			c-1.199,1.346-2.636,2.61-4.312,3.746c-1.676,1.136-3.443,1.774-5.305,1.913c-2.037,0.151-3.711-0.333-5.028-1.453
			c-1.317-1.121-2.367-2.523-3.146-4.207s-1.352-3.503-1.715-5.453c-0.362-1.949-0.6-3.647-0.716-5.094
			c-0.557-6.942-0.361-13.886,0.62-20.833c0.981-6.946,2.187-13.863,3.701-20.627c0.488-2.182,1.004-4.383,1.512-6.574
			c0.507-2.19,1.093-4.394,1.81-6.504c0.242-0.711,0.5-1.347,0.736-1.888c0.236-0.541,0.522-1.01,0.861-1.414
			c0.338-0.402,0.757-0.766,1.255-1.093c0.497-0.326,1.101-0.688,1.808-1.086c0.471-0.265,0.975-0.504,1.513-0.716
			c0.537-0.212,1.081-0.336,1.63-0.374c0.671-0.045,1.172,0.11,1.502,0.465c0.33,0.355,0.517,0.853,0.559,1.489
			c0.039,0.579-0.007,1.267-0.137,2.061c-0.13,0.794-0.307,1.589-0.527,2.39c-0.221,0.8-0.46,1.574-0.714,2.318
			c-0.255,0.746-0.488,1.416-0.687,2.008c-1.784,5.322-3.324,10.805-4.676,16.342c-1.353,5.539-2.233,11.149-2.739,16.739
			c-0.253,2.8-0.535,5.627-0.799,8.44s-0.289,5.61-0.078,8.388c0.048,0.637,0.157,1.69,0.327,3.161s0.458,2.934,0.863,4.387
			c0.404,1.453,0.94,2.725,1.607,3.809c0.667,1.084,1.555,1.584,2.663,1.503c0.757-0.055,1.441-0.321,2.053-0.801
			c0.611-0.48,1.133-0.983,1.569-1.464c0.79-0.871,1.578-1.958,2.283-3.257c0.704-1.298,1.333-2.666,1.885-4.099
			c0.551-1.432,0.973-2.885,1.259-4.358c0.286-1.472,0.391-2.788,0.314-3.947c-0.188-2.836-1.148-4.768-2.882-5.785
			c-1.734-1.017-3.936-1.432-6.602-1.241c-0.533,0.038-1.029-0.217-1.485-0.765s-0.702-1.054-0.735-1.518
			c-0.063-0.868,0.261-1.519,0.977-1.949c0.714-0.429,1.461-0.705,2.226-0.813c0.882-0.125,1.747-0.21,2.579-0.268
			c0.892-0.062,1.781-0.152,2.669-0.271c1.774-0.237,3.533-0.528,5.273-0.872c1.738-0.344,3.499-0.628,5.277-0.854
			c0.107-0.006,0.161-0.01,0.268-0.016c0.532-0.09,1.032,0.04,1.501,0.39c0.469,0.351,0.718,0.785,0.749,1.306
			c0.031,0.521-0.24,0.988-0.811,1.4c-0.572,0.413-1.25,0.759-2.037,1.04c-0.787,0.28-1.592,0.505-2.414,0.673
			c-0.824,0.168-1.851,0.372-1.854,0.38C150.789,63.625,153.112,67.215,153.269,69.705z"/>
		<path fill="#FFFFFF" d="M167.646,90.354c-1.261-0.599-2.316-1.412-3.165-2.44c-0.849-1.027-1.492-2.238-1.925-3.638
			c-0.433-1.399-0.695-2.881-0.786-4.446c-0.114-1.969,0.13-4.369,0.737-7.193s1.549-5.565,2.83-8.223
			c1.28-2.656,2.869-4.937,4.771-6.837c1.9-1.899,4.049-2.909,6.435-3.023c1.61-0.077,2.871,0.361,3.779,1.309
			c0.908,0.949,1.396,2.179,1.464,3.689c0.065,1.454-0.324,3.09-1.161,4.904c-0.838,1.815-1.913,3.582-3.221,5.305
			c-1.31,1.724-2.727,3.265-4.252,4.623c-1.525,1.36-3.835,2.292-4.277,2.844c-0.438,0.546-0.304,2.582-0.245,3.685
			c0.106,1.976,0.629,3.507,1.566,4.593c0.938,1.086,2.428,1.577,4.474,1.474c1.87-0.094,3.604-0.54,5.208-1.342
			c1.603-0.801,3.082-1.797,4.439-2.989c1.356-1.192,2.592-2.537,3.708-4.035c1.114-1.498,2.081-3.009,2.913-4.473
			c0.269-0.473,0.609-0.982,1.002-1.521c0.392-0.538,0.913-0.82,1.562-0.844c0.295-0.011,0.578,0.065,0.85,0.229
			s0.413,0.391,0.423,0.681c0.021,0.58-0.019,1.047-0.124,1.399c-0.105,0.352-0.315,0.771-0.574,1.241
			c-1.067,1.94-2.338,3.952-3.878,5.813c-1.542,1.863-3.246,3.51-5.116,4.944s-3.894,2.602-6.073,3.5
			c-2.18,0.898-4.461,1.41-6.85,1.534C170.411,91.207,168.907,90.953,167.646,90.354z M173.705,60.586
			c-0.829,1.298-1.587,2.798-2.271,4.499c-0.685,1.702-1.248,3.397-1.692,5.087c-0.444,1.689-0.783,3.679-0.783,3.679
			c0.087,0.052,1.904-1.46,2.977-2.479c1.071-1.019,2.052-2.15,2.939-3.392c0.887-1.241,1.625-2.504,2.219-3.79
			c0.591-1.284,0.861-2.509,0.806-3.675c-0.022-0.466-0.148-0.915-0.377-1.342c-0.229-0.427-0.64-0.627-1.234-0.599
			C175.396,58.618,174.533,59.289,173.705,60.586z"/>
		<path fill="#FFFFFF" d="M202.066,66.772c-1.124-0.835-3.349-1.961-3.661-1.794c-0.375,0.2-0.901,2.645-1.413,4.056
			c-0.512,1.411-1.095,2.828-1.75,4.245c-0.656,1.418-1.373,2.781-2.146,4.087c-0.775,1.308-1.641,2.475-2.598,3.5
			c-0.283,0.303-0.623,0.605-1.021,0.912c-0.397,0.307-0.831,0.471-1.301,0.49c-0.761,0.032-1.16-0.329-1.191-1.083
			c-0.015-0.348,0.046-0.686,0.179-1.01c0.133-0.324,0.329-0.64,0.534-0.937c1.628-2.367,3.107-5.063,4.513-7.674
			c1.406-2.609,3.04-6.65,2.482-8.37c-0.253-0.78-1.505-2.135-1.91-3.37c-0.404-1.233-0.633-2.516-0.684-3.851
			c-0.027-0.696,0.043-1.598,0.21-2.708c0.167-1.108,0.455-2.197,0.864-3.258c0.409-1.061,0.93-1.978,1.562-2.756
			c0.631-0.777,1.397-1.183,2.295-1.214c0.659-0.023,1.177,0.234,1.556,0.772c0.378,0.54,0.701,1.168,0.964,1.885
			c0.263,0.717,0.44,1.453,0.524,2.203c0.084,0.752,0.134,1.361,0.149,1.825c0.046,1.392-0.369,3.321-0.13,4.185
			c0.217,0.786,1.729,1.845,2.939,2.474c1.209,0.628,2.405,1.319,3.586,2.068c1.18,0.749,2.201,1.679,3.062,2.787
			c0.86,1.108,1.314,2.619,1.365,4.534c0.026,0.987-0.089,2.124-0.35,3.405c-0.416,2.042-0.774,4.084-1.07,6.124
			c-0.296,2.041-0.414,4.107-0.355,6.195c0.017,0.581,0.109,1.26,0.276,2.039c0.167,0.778,0.66,1.155,1.478,1.133
			c0.993-0.027,2.135-0.549,3.426-1.569c1.291-1.019,2.563-2.209,3.822-3.574c1.258-1.362,2.432-2.737,3.521-4.124
			c1.087-1.385,1.885-2.522,2.406-3.312c0.269-0.407,0.616-0.867,0.992-1.367c0.374-0.5,0.827-0.754,1.357-0.763
			s0.872,0.173,1.025,0.547c0.153,0.375,0.235,0.796,0.243,1.26c0.006,0.348-0.065,0.669-0.207,0.961
			c-0.143,0.293-0.298,0.59-0.471,0.877c-0.667,1.11-1.707,2.526-3.052,4.233c-1.347,1.709-2.807,3.362-4.381,4.958
			c-1.575,1.596-3.208,2.97-4.9,4.119c-1.691,1.148-3.234,1.744-4.633,1.783c-1.457,0.041-2.607-0.366-3.449-1.221
			c-0.843-0.857-1.486-1.896-1.933-3.12c-0.447-1.224-0.739-2.531-0.871-3.92c-0.131-1.389-0.213-2.607-0.247-3.651
			c-0.051-1.623-0.029-3.221,0.069-4.792c0.097-1.571,0.123-3.168,0.072-4.793C203.772,68.75,203.188,67.607,202.066,66.772z"/>
		<path fill="#FFFFFF" d="M262.986,54.687c-1.387,2.69-2.917,5.245-4.312,7.596c-0.364,0.614-0.747,1.233-1.162,1.783
			c-0.417,0.551-0.828,1.15-1.247,1.696c-0.221,0.289-0.486,0.595-0.753,0.913c-0.267,0.319-0.347,0.642-0.472,0.913
			c-0.104,0.227-0.07,0.552-0.07,0.958c0,0.407,0,0.726,0,0.958c0,0.871-0.037,2.219,0.109,4.047
			c0.145,1.828,0.356,3.672,0.735,5.529c0.379,1.858,0.906,3.484,1.635,4.877s1.663,2.092,2.834,2.097
			c1.344,0.005,2.726-0.493,4.168-1.499c1.439-1.005,2.824-2.2,4.156-3.581c1.332-1.381,2.547-2.832,3.653-4.358
			c1.104-1.524,2.018-2.812,2.653-3.841c0.242-0.392,0.567-0.834,0.986-1.293c0.418-0.458,0.865-0.685,1.338-0.678
			c0.354,0.005,0.647,0.141,0.88,0.405s0.348,0.571,0.343,0.919c-0.01,0.639-0.169,1.247-0.472,1.821
			c-0.303,0.576-0.641,1.154-0.996,1.727c-0.849,1.366-1.954,2.975-3.326,4.786s-2.887,3.521-4.539,5.13
			c-1.652,1.61-3.386,2.975-5.199,4.094c-1.814,1.12-3.595,1.678-5.342,1.672c-1.516-0.004-2.839-0.471-3.975-1.399
			c-1.137-0.93-2.098-2.132-2.889-3.611s-1.457-3.146-1.99-5.002c-0.532-1.854-0.948-3.709-1.249-5.565
			c-0.301-1.855-0.511-3.613-0.636-5.267s-0.19-3.031-0.194-4.134c-0.011-2.843,0.081-5.702,0.278-8.576s1.208-8.467,1.182-8.491
			c-0.064-0.06-1.227,0.266-1.884,0.269c-1.435,0.006-2.157-0.688-2.165-2.08c-0.006-1.16,0.513-1.917,1.561-2.271
			c1.048-0.353,2.71-0.379,3.014-0.62c0.553-0.438,1.162-3.674,2.062-6.315c0.898-2.641,2.013-5.253,3.346-7.835
			c1.332-2.581,2.868-4.8,4.605-6.65c1.736-1.85,3.676-2.77,5.807-2.755c0.973,0.007,1.732,0.304,2.274,0.888
			s0.945,1.286,1.211,2.101c0.266,0.816,0.427,1.672,0.479,2.571c0.052,0.9,0.073,1.67,0.067,2.309
			c-0.021,2.263-0.208,4.556-0.561,6.872c-0.354,2.318-1.625,6.684-1.549,6.777c0.108,0.131,2.041-0.244,3.065-0.408
			c1.022-0.164,2.045-0.239,3.066-0.227c0.841,0.01,1.259,0.395,1.249,1.148c-0.006,0.465-0.116,0.796-0.329,0.996
			c-0.213,0.202-0.51,0.45-0.862,0.643c-0.221,0.121-0.694,0.268-1.355,0.464c-0.662,0.196-1.384,0.392-2.163,0.586
			c-0.782,0.196-1.533,0.376-2.254,0.544c-0.721,0.167-1.502,0.23-1.62,0.335C265.234,47.491,264.372,51.998,262.986,54.687z
			 M254.539,55.532c-0.149,2.35-0.493,7.007-0.493,7.007c0.043,0.017,1.38-1.856,2.184-3.132c0.804-1.275,1.582-2.621,2.332-4.042
			c0.748-1.419,1.423-2.811,2.025-4.172c0.602-1.36,1.372-3.596,1.362-3.606c-0.106-0.115-2.153,0.381-3.231,0.465
			c-1.078,0.083-2.795,0.197-3.144,0.56C254.777,49.442,254.688,53.181,254.539,55.532z M262.14,27.781
			c-1.04,1.592-1.984,3.447-2.837,5.562c-0.853,2.116-1.566,4.189-2.142,6.218c-0.576,2.031-1.111,4.284-1.045,4.351
			c0.173,0.172,2.433-0.3,3.693-0.382s3.242-0.133,3.695-0.548c0.878-0.802,1.35-4.664,1.852-7.388
			c0.502-2.723,0.765-5.246,0.782-7.568c0.001-0.116,0.001-0.318,0.003-0.609c0.002-0.29-0.026-0.581-0.085-0.871
			c-0.059-0.29-0.147-0.554-0.267-0.785c-0.119-0.232-0.303-0.351-0.546-0.353C264.213,25.399,263.178,26.191,262.14,27.781z"/>
		<path fill="#FFFFFF" d="M299.071,59.776c-1.164,1.187-2.425,2.721-3.777,4.603c-1.354,1.881-2.765,3.951-4.234,6.209
			c-1.47,2.259-2.83,4.452-4.078,6.571c-1.25,2.122-2.346,4.03-3.285,5.724c-0.94,1.695-1.598,2.922-1.953,3.667
			c-0.245,0.513-0.531,1.064-0.861,1.638c-0.331,0.574-0.689,1.123-1.076,1.637c-0.388,0.516-0.849,0.945-1.378,1.285
			c-0.53,0.34-1.112,0.505-1.752,0.496c-0.642-0.009-1.149-0.206-1.521-0.587c-0.374-0.383-0.677-0.837-0.903-1.361
			c-0.227-0.524-0.365-1.093-0.416-1.703s-0.073-1.146-0.067-1.611c0.019-1.509,0.155-3,0.409-4.478s0.472-2.976,0.674-4.475
			c0.374-2.769,0.763-5.533,1.125-8.256c0.362-2.721,0.707-5.485,1.053-8.256c0.39-3.12,0.884-6.662,1.451-10.601
			c0.567-3.937,1.245-7.917,2.033-11.938c0.788-4.02,1.73-7.895,2.828-11.619s2.426-6.94,3.926-9.633
			c0.381-0.684,0.838-1.377,1.371-2.062c0.533-0.684,1.128-1.323,1.783-1.918s1.385-1.073,2.188-1.433
			c0.804-0.358,1.634-0.527,2.492-0.505c1.04,0.026,1.875,0.339,2.502,0.936c0.627,0.597,1.114,1.322,1.458,2.172
			c0.344,0.851,0.562,1.758,0.658,2.718c0.096,0.96,0.134,1.789,0.114,2.484c-0.181,6.498-1.377,12.792-3.554,18.888
			c-2.177,6.098-4.838,11.988-7.922,17.664c-0.746,1.374-1.518,2.726-2.315,4.044c-0.8,1.32-1.585,2.647-2.303,3.962
			c-0.186,0.34-0.421,1.167-0.711,2.468c-0.291,1.301-0.583,2.732-0.876,4.294c-0.294,1.562-0.557,3.052-0.787,4.47
			c-0.23,1.418-0.534,2.994-0.534,2.994c0.008,0.003,1.31-2.574,2.282-4.27c0.973-1.693,2.071-3.5,3.293-5.421
			c1.221-1.918,2.549-3.822,3.985-5.705c1.436-1.881,2.903-3.59,4.401-5.119c1.497-1.529,3.024-2.751,4.571-3.666
			s3.007-1.349,4.381-1.307c1.015,0.031,1.842,0.318,2.481,0.861s1.14,1.214,1.501,2.01s0.601,1.646,0.719,2.549
			c0.118,0.905,0.163,1.763,0.136,2.575c-0.124,3.654-0.53,7.285-1.211,10.89c-0.682,3.606-1.079,7.236-1.199,10.891
			c-0.014,0.406-0.015,0.842,0,1.307c0.015,0.466,0.089,0.891,0.223,1.271c0.134,0.381,0.358,0.708,0.67,0.98
			c0.311,0.271,0.761,0.418,1.345,0.438c1.228,0.042,2.545-0.404,3.956-1.34c1.41-0.935,2.785-2.044,4.127-3.328
			c1.342-1.283,2.604-2.625,3.781-4.028c1.176-1.402,2.074-2.576,2.708-3.457c0.242-0.336,0.58-0.773,0.988-1.308
			c0.406-0.534,0.877-0.79,1.407-0.766c0.532,0.024,0.878,0.213,1.039,0.569c0.161,0.356,0.229,0.767,0.207,1.23
			c-0.014,0.291-0.081,0.534-0.207,0.731c-0.128,0.199-0.258,0.412-0.386,0.635c-0.938,1.637-2.215,3.417-3.766,5.324
			c-1.552,1.909-3.27,3.682-5.147,5.318c-1.881,1.639-3.878,2.986-5.987,4.042c-2.111,1.056-4.182,1.552-6.22,1.486
			c-1.224-0.04-2.127-0.534-2.711-1.479c-0.584-0.947-1.006-2.062-1.26-3.347c-0.254-1.283-0.375-2.61-0.364-3.973
			c0.011-1.362,0.027-2.452,0.051-3.265c0.092-3.132,0.349-6.259,0.767-9.382c0.417-3.123,0.819-6.247,1.212-9.371
			c0.009-0.278,0.014-0.417,0.022-0.695c0.009-0.29-0.009-0.712-0.051-1.265c-0.042-0.551-0.304-0.835-0.778-0.849
			C301.144,58.008,300.233,58.589,299.071,59.776z M292.597,18.16c-0.925,1.72-1.829,3.935-2.708,6.644
			c-0.879,2.71-1.699,5.698-2.46,8.96c-0.762,3.264-1.426,6.415-1.994,9.451c-0.569,3.037-1.044,5.756-1.416,8.157
			c-0.373,2.403-0.674,5.081-0.674,5.081c0.07,0.022,2.868-5.084,4.369-8.187c1.502-3.103,2.881-6.323,4.133-9.66
			c1.252-3.336,2.314-6.652,3.186-9.938c0.87-3.286,1.345-6.263,1.413-8.932c0.005-0.174,0.011-0.492,0.022-0.958
			c0.012-0.463-0.021-0.927-0.1-1.395c-0.079-0.466-0.18-0.876-0.293-1.227c-0.114-0.351-0.32-0.532-0.625-0.54
			C294.474,15.592,293.521,16.439,292.597,18.16z"/>
		<path fill="#FFFFFF" d="M334.596,67.964c-1.051-0.925-3.176-2.23-3.501-2.09c-0.391,0.169-1.118,2.562-1.745,3.926
			c-0.627,1.364-1.324,2.726-2.095,4.084s-1.598,2.66-2.477,3.897c-0.881,1.239-1.838,2.332-2.877,3.274
			c-0.307,0.278-0.672,0.551-1.093,0.823c-0.421,0.272-0.866,0.4-1.337,0.381c-0.761-0.031-1.127-0.422-1.097-1.177
			c0.014-0.348,0.104-0.681,0.262-0.993s0.38-0.61,0.607-0.89c1.818-2.229,3.515-4.79,5.131-7.274s3.577-6.377,3.164-8.138
			c-0.188-0.798-1.323-2.252-1.624-3.515c-0.301-1.262-0.423-2.559-0.363-3.893c0.031-0.696,0.176-1.59,0.434-2.682
			c0.258-1.091,0.634-2.151,1.13-3.175c0.495-1.023,1.089-1.894,1.782-2.618c0.693-0.723,1.49-1.065,2.389-1.022
			c0.659,0.031,1.157,0.332,1.489,0.899c0.332,0.568,0.601,1.221,0.804,1.956c0.203,0.736,0.314,1.485,0.337,2.24
			c0.022,0.757,0.024,1.368,0.002,1.831c-0.069,1.391-0.644,3.279-0.477,4.159c0.151,0.801,1.572,1.981,2.726,2.708
			s2.29,1.513,3.405,2.357c1.114,0.844,2.055,1.854,2.822,3.03c0.767,1.175,1.095,2.72,0.987,4.632
			c-0.055,0.986-0.264,2.109-0.63,3.365c-0.583,2.001-1.109,4.007-1.572,6.015c-0.464,2.009-0.751,4.057-0.864,6.144
			c-0.031,0.58,0.002,1.264,0.104,2.055c0.103,0.79,0.565,1.207,1.383,1.252c0.991,0.055,2.174-0.372,3.544-1.28
			c1.371-0.909,2.736-1.99,4.104-3.246c1.367-1.254,2.652-2.527,3.853-3.819c1.198-1.291,2.087-2.357,2.672-3.102
			c0.302-0.384,0.687-0.812,1.102-1.28c0.413-0.467,0.889-0.684,1.417-0.649c0.53,0.035,0.855,0.247,0.978,0.632
			s0.164,0.811,0.134,1.273c-0.023,0.347-0.115,0.662-0.28,0.941c-0.168,0.281-0.346,0.564-0.542,0.836
			c-0.757,1.051-1.91,2.375-3.393,3.966c-1.484,1.593-3.077,3.118-4.778,4.578s-3.445,2.695-5.227,3.7s-3.37,1.471-4.768,1.394
			c-1.455-0.08-2.564-0.58-3.334-1.501c-0.77-0.924-1.325-2.012-1.67-3.27s-0.524-2.583-0.541-3.978
			c-0.017-1.394,0-2.615,0.054-3.658c0.083-1.622,0.237-3.213,0.465-4.77c0.228-1.556,0.385-3.147,0.468-4.771
			C336.134,70.077,335.645,68.888,334.596,67.964z"/>
		<path fill="#FFFFFF" d="M360.552,91.599c-1.179-0.748-2.126-1.684-2.844-2.807c-0.718-1.123-1.207-2.404-1.467-3.847
			c-0.259-1.441-0.34-2.945-0.239-4.509c0.126-1.968,0.662-4.319,1.608-7.049s2.213-5.336,3.808-7.818
			c1.594-2.48,3.45-4.551,5.569-6.206c2.117-1.654,4.371-2.395,6.755-2.217c1.607,0.12,2.811,0.708,3.597,1.76
			c0.785,1.052,1.117,2.333,1.001,3.84c-0.112,1.451-0.694,3.027-1.747,4.726c-1.054,1.7-2.336,3.323-3.845,4.874
			c-1.51,1.552-3.105,2.907-4.785,4.07s-4.085,1.809-4.592,2.304c-0.501,0.489-0.617,2.524-0.692,3.626
			c-0.135,1.975,0.199,3.56,0.996,4.75c0.798,1.192,2.219,1.859,4.263,2.006c1.867,0.135,3.643-0.095,5.333-0.696
			c1.689-0.6,3.282-1.41,4.775-2.429c1.492-1.018,2.881-2.2,4.172-3.552c1.289-1.351,2.433-2.734,3.438-4.087
			c0.324-0.437,0.726-0.901,1.181-1.387c0.454-0.485,1.004-0.702,1.652-0.647c0.293,0.025,0.569,0.136,0.819,0.332
			c0.251,0.196,0.361,0.438,0.337,0.728c-0.049,0.579-0.147,1.037-0.294,1.373c-0.146,0.336-0.407,0.727-0.721,1.162
			c-1.296,1.797-2.804,3.637-4.561,5.297c-1.758,1.662-3.65,3.088-5.682,4.285c-2.033,1.196-4.186,2.108-6.459,2.735
			c-2.273,0.626-4.603,0.857-6.989,0.689C363.193,92.782,361.73,92.347,360.552,91.599z M370.191,62.789
			c-0.98,1.187-1.915,2.584-2.802,4.189c-0.887,1.606-1.653,3.22-2.3,4.842s-1.224,3.557-1.224,3.557
			c0.08,0.062,2.064-1.217,3.253-2.098s2.301-1.884,3.333-3.009c1.031-1.125,1.922-2.289,2.667-3.492
			c0.743-1.2,1.159-2.386,1.246-3.55c0.035-0.465-0.035-0.926-0.21-1.378c-0.176-0.452-0.563-0.699-1.157-0.743
			C372.107,61.042,371.172,61.603,370.191,62.789z"/>
		<path fill="#FFFFFF" d="M424.702,84.769c-0.571,0.639-1.024,1.204-1.368,1.604c-0.862,1.004-2.07,2.172-3.389,3.492
			c-1.321,1.321-2.728,2.546-4.227,3.675c-1.499,1.13-3.063,2.05-4.69,2.763c-1.629,0.712-3.194,0.996-4.704,0.849
			c-1.453-0.141-2.566-0.757-3.344-1.85s-1.332-2.368-1.667-3.829c-0.335-1.459-0.49-2.959-0.466-4.502
			c0.024-1.542,0.272-3.866,0.272-3.866c-0.035-0.016-1.515,1.828-2.541,3.045s-2.146,2.383-3.364,3.498s-2.462,2.055-3.731,2.818
			c-1.27,0.763-2.486,1.094-3.65,0.995c-1.049-0.089-1.896-0.479-2.542-1.174c-0.647-0.694-1.12-1.52-1.423-2.477
			c-0.303-0.956-0.486-1.961-0.547-3.014c-0.061-1.053-0.059-1.985,0.008-2.795c0.184-2.256,0.948-4.784,2.306-7.584
			c1.357-2.799,3.076-5.407,5.159-7.821c2.082-2.413,4.405-4.382,6.965-5.901s5.153-2.156,7.771-1.909
			c0.652,0.062,1.28,0.414,1.878,1.053c0.599,0.64,0.865,1.278,0.805,1.913c-0.028,0.29-0.138,0.499-0.328,0.625
			c-0.191,0.127-0.426,0.232-0.661,0.33c-1.657,0.689-3.308,1.598-4.852,2.474c-1.544,0.876-3.027,1.935-4.444,3.134
			c-2.49,2.107-4.569,4.532-6.17,7.277c-1.602,2.745-2.535,5.767-2.816,9.063c-0.029,0.347-0.009,0.785,0.063,1.316
			c0.072,0.53,0.372,0.817,0.898,0.862c0.642,0.055,1.404-0.272,2.292-0.981c0.887-0.708,1.821-1.616,2.805-2.723
			c0.983-1.106,1.967-2.358,2.951-3.755c0.984-1.396,1.923-2.752,2.815-4.069c0.893-1.316,1.677-2.542,2.348-3.674
			c0.671-1.13,1.198-1.976,1.532-2.522c0.36-0.589,0.778-1.165,1.274-1.672c0.496-0.506,1.158-0.72,1.988-0.64
			c0.472,0.045,0.924,0.176,1.349,0.392c0.426,0.216,0.615,0.614,0.559,1.191c-0.062,0.636-0.354,1.456-0.867,2.453
			c-0.514,0.999-0.941,1.814-1.216,2.418c-0.638,1.404-1.107,3.03-1.477,4.713c-0.37,1.684-0.624,3.277-0.768,4.779
			c-0.044,0.463-0.099,1.157-0.157,2.083c-0.059,0.928-0.047,1.876,0.037,2.846c0.084,0.97,0.282,1.835,0.591,2.593
			c0.308,0.756,0.813,1.171,1.512,1.239c1.049,0.102,2.257-0.244,3.632-1.041c1.373-0.795,2.738-1.751,4.092-2.869
			c1.353-1.116,2.625-2.282,3.817-3.5c1.192-1.217,2.106-2.204,2.71-2.956c0.342-0.425,0.713-0.872,1.117-1.324
			s0.93-0.646,1.576-0.576c0.938,0.101,1.349,0.7,1.23,1.796C425.589,83.551,425.273,84.13,424.702,84.769z"/>
		<path fill="#FFFFFF" d="M439.417,90.191c-1.435,1.118-2.943,2.155-4.529,3.112s-3.18,1.755-4.784,2.393
			c-1.604,0.639-3.043,0.888-4.321,0.748c-0.932-0.102-1.699-0.479-2.305-1.126c-0.606-0.648-1.067-1.415-1.386-2.292
			c-0.318-0.878-0.533-1.795-0.64-2.739c-0.106-0.942-0.12-1.792-0.041-2.543c0.354-3.347,1.448-6.574,3.297-9.672
			c1.849-3.098,4.207-5.658,7.041-7.506c1.073-0.7,2.437-1.319,4.028-1.869c1.591-0.549,3.069-0.745,4.433-0.586
			c1.833,0.213,4.294,2.521,4.294,2.521c0.104-0.026,0.54-3.53,1.045-5.749c0.505-2.218,1.156-4.523,1.957-6.911
			c0.8-2.387,1.701-4.823,2.7-7.303c0.998-2.479,2.105-4.8,3.316-6.962c1.21-2.16,2.474-4.125,3.797-5.89s2.691-3.114,4.101-4.047
			c0.738-0.49,1.582-0.967,2.534-1.431c0.95-0.462,1.884-0.637,2.793-0.519c1.091,0.142,1.922,0.602,2.497,1.379
			s0.981,1.682,1.214,2.708c0.232,1.027,0.339,2.081,0.318,3.16c-0.021,1.081-0.081,1.995-0.181,2.742
			c-0.398,2.992-1.368,6.377-2.902,10.153c-1.535,3.778-3.322,7.569-5.354,11.371c-2.034,3.804-4.162,7.466-6.375,10.987
			c-2.213,3.523-5.1,6.896-5.93,9.083c-0.173,0.456-0.18,1.689-0.302,3.165s-0.164,2.992-0.119,4.546
			c0.045,1.555,0.26,2.942,0.64,4.159s1.004,1.879,1.875,1.989c1.28,0.161,2.644-0.103,4.094-0.794
			c1.448-0.691,2.851-1.576,4.208-2.658c1.354-1.079,2.639-2.244,3.845-3.488c1.206-1.245,2.166-2.335,2.886-3.214
			c0.343-0.419,0.815-0.945,1.378-1.571c0.561-0.625,1.132-0.902,1.72-0.822c0.526,0.072,0.841,0.322,0.932,0.744
			c0.091,0.423,0.108,0.836,0.054,1.237c-0.087,0.634-0.364,1.239-0.831,1.819c-0.467,0.581-0.91,1.106-1.331,1.575
			c-1.122,1.253-2.393,2.605-3.803,4.055c-1.41,1.451-2.935,2.755-4.565,3.915c-1.632,1.162-3.326,2.096-5.099,2.804
			s-3.589,0.947-5.445,0.715c-1.509-0.189-2.708-0.82-3.607-1.895s-1.614-2.332-2.148-3.769s-0.902-2.93-1.103-4.473
			c-0.2-1.542-0.356-4.077-0.356-4.077C442.843,87.316,440.849,89.075,439.417,90.191z M437.728,75.578
			c-2.029,1.022-3.881,2.362-5.553,4.014c-1.672,1.652-3.063,3.499-4.177,5.536c-1.113,2.039-1.762,3.953-1.956,5.74
			c-0.031,0.29-0.046,0.653-0.035,1.091c0.011,0.438,0.251,0.684,0.718,0.735c0.932,0.102,2.211-0.282,3.845-1.15
			s3.289-1.908,4.969-3.117c1.678-1.209,3.228-2.431,4.65-3.666c1.423-1.235,2.694-2.328,2.887-2.902
			c0.287-0.859,0.122-2.527,0.266-3.738s0.626-3.482,0.44-3.718C443.415,73.938,439.756,74.556,437.728,75.578z M450.389,76.168
			c1.477-2.273,3.098-4.938,4.865-7.992c1.767-3.052,3.449-6.203,5.046-9.45c1.597-3.247,3.004-6.49,4.217-9.727
			c1.213-3.235,1.995-6.178,2.341-8.825c0.015-0.115,0.037-0.287,0.067-0.518c0.037-0.287,0.046-0.579,0.023-0.874
			c-0.022-0.294-0.083-0.553-0.177-0.77s-0.259-0.342-0.501-0.373c-0.303-0.04-0.591,0.042-0.862,0.24
			c-0.271,0.199-0.522,0.369-0.713,0.52c-0.889,0.705-1.855,2.031-2.876,3.801c-1.021,1.771-2.032,3.822-3.026,6.153
			c-0.994,2.33-1.958,4.814-2.894,7.445c-0.936,2.633-1.783,5.188-2.543,7.667c-0.761,2.479-1.388,4.755-1.883,6.827
			c-0.495,2.073-0.82,3.745-0.977,5.011C450.454,75.649,450.432,75.823,450.389,76.168z"/>
		<path fill="#FFFFFF" d="M481.355,75.455c-0.148,1.122,1.057,3.552,1.757,5.353c0.7,1.801,1.368,3.614,1.999,5.435
			s1.107,3.667,1.429,5.533c0.321,1.866,0.345,3.718,0.073,5.555c-0.17,1.149-0.504,2.272-0.992,3.373
			c-0.488,1.102-1.991,2.962-1.991,2.962c0.039,0.125,2.318-0.054,3.851-0.794c1.534-0.74,3.097-1.648,4.687-2.728
			s3.071-2.202,4.445-3.371c1.372-1.168,2.383-2.148,3.033-2.834c0.336-0.354,0.778-0.774,1.272-1.255
			c0.494-0.48,1.034-0.674,1.618-0.583c0.524,0.083,0.849,0.311,0.969,0.683c0.12,0.372,0.143,0.786,0.07,1.244
			c-0.046,0.288-0.194,0.572-0.448,0.854c-0.254,0.284-0.455,0.6-0.625,0.828c-1.647,2.218-4.099,4.262-6.206,5.99
			c-2.109,1.73-4.322,3.124-6.644,4.183c-2.321,1.059-4.815,1.756-7.492,2.099c-2.676,0.342-5.576,0.293-8.695-0.145
			c-1.677-0.236-3.458-0.659-5.348-1.269c-1.892-0.61-3.419-1.607-4.501-2.982c-0.253-0.321-0.444-0.645-0.58-0.955
			c-0.135-0.312-0.178-0.668-0.124-1.071c0.115-0.862,0.639-1.233,1.564-1.109c0.35,0.047,0.616,0.142,0.805,0.284
			c0.188,0.142,0.422,0.318,0.681,0.531c0.897,0.736,1.83,1.331,2.783,1.696c0.954,0.364,2.007,0.63,3.167,0.792
			c2.316,0.322,4.169-0.135,5.558-1.372c1.387-1.236,2.242-2.946,2.556-5.129c0.189-1.321,0.208-2.757,0.042-4.304
			c-0.166-1.547-0.436-3.109-0.808-4.687c-0.372-1.577-0.827-3.122-1.362-4.634c-0.534-1.51-1.643-3.968-1.643-3.968
			c-0.135-0.001-1.266,2.3-2.077,3.622c-0.812,1.324-1.693,2.622-2.644,3.897c-0.95,1.275-1.936,2.489-2.955,3.638
			c-1.02,1.15-2.022,2.097-3.012,2.843c-0.331,0.249-0.705,0.506-1.126,0.771c-0.421,0.267-0.865,0.369-1.332,0.307
			c-0.815-0.108-1.173-0.564-1.066-1.371c0.061-0.46,0.218-0.849,0.468-1.167s0.551-0.631,0.883-0.938
			c4.614-4.266,10.663-10.944,11.208-15.259c0.136-1.074-0.377-3.129-0.163-4.682c0.119-0.862,0.403-1.849,0.859-2.957
			c0.455-1.106,1.02-2.145,1.697-3.104c0.678-0.96,1.488-1.755,2.426-2.386c0.935-0.629,1.939-0.871,3.011-0.719
			c0.534,0.076,0.976,0.301,1.317,0.672c0.341,0.37,0.577,0.816,0.715,1.333c0.138,0.519,0.216,1.045,0.23,1.573
			c0.015,0.529-0.012,1.024-0.078,1.483c-0.207,1.437-0.622,2.858-1.246,4.263C482.746,72.884,481.471,74.584,481.355,75.455z"/>
	</g>
</g>
</svg>
